/* XPM */
static char *result[] = {
"60 62 683 2",
"  	c #fcebbb",
". 	c #fcebbb",
"+ 	c #FCFAFC",
"@ 	c #FCFAFA",
"# 	c #FBF8F8",
"$ 	c #F9F4F4",
"% 	c #F6F1F0",
"& 	c #F4EEED",
"* 	c #F3ECEB",
"= 	c #F0E8E7",
"- 	c #ECE5E3",
"; 	c #EBE2DF",
"> 	c #EAE0DC",
", 	c #E8DCD9",
"' 	c #E5D7D2",
") 	c #E1D3CD",
"! 	c #E0CFCA",
"~ 	c #DDCBC5",
"{ 	c #F9F7F6",
"] 	c #FBF9FA",
"^ 	c #F9F5F5",
"/ 	c #F6F1EF",
"( 	c #F3EEEB",
"_ 	c #F1EAE9",
": 	c #EFE7E5",
"< 	c #ECE3E0",
"[ 	c #E9E0DD",
"} 	c #E8DDDA",
"| 	c #E6DBD8",
"1 	c #E4D6D2",
"2 	c #E1D2CD",
"3 	c #DECEC9",
"4 	c #DCCBC8",
"5 	c #DAC6C1",
"6 	c #D6C0B8",
"7 	c #D2BBB2",
"8 	c #D0B7AF",
"9 	c #CDB3AB",
"0 	c #CAADA4",
"a 	c #C6A79C",
"b 	c #C4A296",
"c 	c #C29F93",
"d 	c #BF9A8C",
"e 	c #BC9483",
"f 	c #B98D7C",
"g 	c #B78877",
"h 	c #B3806D",
"i 	c #AF765E",
"j 	c #AA6B4C",
"k 	c #A76039",
"l 	c #A3582C",
"m 	c #A05424",
"n 	c #A05120",
"o 	c #9F501D",
"p 	c #A04F1B",
"q 	c #A0501B",
"r 	c #A0501C",
"s 	c #A0521E",
"t 	c #F8F4F4",
"u 	c #E7DBD8",
"v 	c #9F4F19",
"w 	c #A04F1A",
"x 	c #9F4F1A",
"y 	c #A0511B",
"z 	c #A1501A",
"A 	c #A2511B",
"B 	c #A3511C",
"C 	c #A5521C",
"D 	c #A6531D",
"E 	c #A7541D",
"F 	c #A8551E",
"G 	c #A9561F",
"H 	c #AB561F",
"I 	c #AC571F",
"J 	c #AD581F",
"K 	c #AE581F",
"L 	c #AF581F",
"M 	c #B05920",
"N 	c #B25A21",
"O 	c #B35A21",
"P 	c #B45B21",
"Q 	c #B55C21",
"R 	c #B65C22",
"S 	c #B75D22",
"T 	c #B95E22",
"U 	c #BA5E23",
"V 	c #BA5F24",
"W 	c #BC5F24",
"X 	c #BC6024",
"Y 	c #BD6124",
"Z 	c #BF6124",
"` 	c #BF6225",
" .	c #AD571F",
"..	c #A25523",
"+.	c #F9F6F7",
"@.	c #F1EBE9",
"#.	c #9F4F18",
"$.	c #B65D22",
"%.	c #B85D22",
"&.	c #B95D22",
"*.	c #BA5E24",
"=.	c #BB5E24",
"-.	c #BB5E23",
";.	c #B75C21",
">.	c #B65B21",
",.	c #B45B20",
"'.	c #B35A20",
").	c #B2591F",
"!.	c #B1591F",
"~.	c #B0581F",
"{.	c #AF571D",
"].	c #AE561D",
"^.	c #AD561D",
"/.	c #AB551C",
"(.	c #AA541C",
"_.	c #A9531B",
":.	c #A7531A",
"<.	c #A55219",
"[.	c #A45119",
"}.	c #A25019",
"|.	c #A04F17",
"1.	c #9F4F16",
"2.	c #9E4D16",
"3.	c #9D4D15",
"4.	c #9D4C14",
"5.	c #9C4C13",
"6.	c #984912",
"7.	c #B35A1F",
"8.	c #C46427",
"9.	c #AE5720",
"0.	c #A4592C",
"a.	c #FAF7F6",
"b.	c #A55F39",
"c.	c #C26326",
"d.	c #954810",
"e.	c #9B4C11",
"f.	c #9C4C11",
"g.	c #9D4C11",
"h.	c #9E4D11",
"i.	c #9F4D11",
"j.	c #A14E12",
"k.	c #A14F12",
"l.	c #A45012",
"m.	c #A65114",
"n.	c #A75213",
"o.	c #A75313",
"p.	c #A85313",
"q.	c #A95413",
"r.	c #AA5413",
"s.	c #AB5514",
"t.	c #AC5614",
"u.	c #AD5614",
"v.	c #AF5715",
"w.	c #B05815",
"x.	c #B15815",
"y.	c #B25815",
"z.	c #B35916",
"A.	c #B45A17",
"B.	c #B55B17",
"C.	c #B65B17",
"D.	c #B75C17",
"E.	c #B85C17",
"F.	c #B95C17",
"G.	c #BA5D17",
"H.	c #BB5D18",
"I.	c #BB5E18",
"J.	c #BB5E17",
"K.	c #AF581E",
"L.	c #A55E37",
"M.	c #FAF7F7",
"N.	c #B27C66",
"O.	c #B25A20",
"P.	c #C46327",
"Q.	c #9A4B14",
"R.	c #9E4E12",
"S.	c #A86544",
"T.	c #FAF8F8",
"U.	c #C19C8F",
"V.	c #AC5720",
"W.	c #C46426",
"X.	c #A14F17",
"Y.	c #B55B16",
"Z.	c #9F4E12",
"`.	c #AE571D",
" +	c #AB571F",
".+	c #AB6C4F",
"++	c #FBF9F8",
"@+	c #CEB4AA",
"#+	c #A6541D",
"$+	c #AA551C",
"%+	c #B95D17",
"&+	c #B35915",
"*+	c #B05715",
"=+	c #AB571E",
"-+	c #AD7358",
";+	c #FBF9F9",
">+	c #DAC8C1",
",+	c #C36327",
"'+	c #A95313",
")+	c #B45A16",
"!+	c #AF5716",
"~+	c #B15816",
"{+	c #B95D18",
"]+	c #AD5514",
"^+	c #AC5515",
"/+	c #A24F13",
"(+	c #AD571D",
"_+	c #B07963",
":+	c #E6DAD6",
"<+	c #A0501A",
"[+	c #A04E12",
"}+	c #A35013",
"|+	c #AD571C",
"1+	c #AA561F",
"2+	c #B3806B",
"3+	c #F1EBE8",
"4+	c #BA5F23",
"5+	c #C16226",
"6+	c #9A4A11",
"7+	c #AE5614",
"8+	c #B55A16",
"9+	c #A45013",
"0+	c #AC561C",
"a+	c #AA551E",
"b+	c #B58471",
"c+	c #FAF6F5",
"d+	c #A45D3A",
"e+	c #994A11",
"f+	c #AA5514",
"g+	c #C06525",
"h+	c #A55112",
"i+	c #AC551C",
"j+	c #A9561E",
"k+	c #B88876",
"l+	c #FBFAFA",
"m+	c #B17B64",
"n+	c #AF5820",
"o+	c #C56426",
"p+	c #9E4E17",
"q+	c #A75314",
"r+	c #BD6019",
"s+	c #D8742F",
"t+	c #A65113",
"u+	c #A8551D",
"v+	c #BB8D7C",
"w+	c #C09A8D",
"x+	c #AA561E",
"y+	c #C46326",
"z+	c #C2641E",
"A+	c #D3702B",
"B+	c #BB5F18",
"C+	c #A65213",
"D+	c #BD9482",
"E+	c #CEB3AB",
"F+	c #A3521C",
"G+	c #A95314",
"H+	c #B65B16",
"I+	c #AB5414",
"J+	c #C96924",
"K+	c #CC6B26",
"L+	c #A9541C",
"M+	c #C09A8C",
"N+	c #DBC7C1",
"O+	c #A1501C",
"P+	c #C26325",
"Q+	c #BA5E18",
"R+	c #A55113",
"S+	c #BF611A",
"T+	c #C1621D",
"U+	c #C3651F",
"V+	c #C66722",
"W+	c #C96824",
"X+	c #CA6A25",
"Y+	c #C86824",
"Z+	c #C86723",
"`+	c #C76723",
" @	c #C76823",
".@	c #C86823",
"+@	c #C76722",
"@@	c #C66622",
"#@	c #BE601A",
"$@	c #A8541C",
"%@	c #A7551E",
"&@	c #C3A095",
"*@	c #E6D9D5",
"=@	c #9F501C",
"-@	c #BD6025",
";@	c #C06224",
">@	c #9A4B11",
",@	c #C06320",
"'@	c #C96925",
")@	c #C66721",
"!@	c #C3641F",
"~@	c #C0611C",
"{@	c #BD5F1A",
"]@	c #A7541B",
"^@	c #C6A49B",
"/@	c #FDFAFB",
"(@	c #F1EAE7",
"_@	c #B85D23",
":@	c #974911",
"<@	c #A6531A",
"[@	c #C8A89E",
"}@	c #FAF6F6",
"|@	c #A45A30",
"1@	c #9C4D16",
"2@	c #A6521B",
"3@	c #CAABA0",
"4@	c #A6531B",
"5@	c #A85314",
"6@	c #A65112",
"7@	c #A35012",
"8@	c #A55012",
"9@	c #A45113",
"0@	c #A55215",
"a@	c #C66827",
"b@	c #A6511A",
"c@	c #C36426",
"d@	c #A5531D",
"e@	c #CBAEA3",
"f@	c #C09A8A",
"g@	c #BA5D18",
"h@	c #C36420",
"i@	c #D7732D",
"j@	c #CEB3A9",
"k@	c #CDB2A8",
"l@	c #A2511C",
"m@	c #A15012",
"n@	c #BC5E17",
"o@	c #BC5E18",
"p@	c #C56520",
"q@	c #D6722E",
"r@	c #AD5613",
"s@	c #A5521D",
"t@	c #D1B7AE",
"u@	c #DAC7C1",
"v@	c #C06226",
"w@	c #BE6124",
"x@	c #9A4B10",
"y@	c #C66621",
"z@	c #D5722C",
"A@	c #AE5714",
"B@	c #A35119",
"C@	c #D3BCB5",
"D@	c #E5D9D4",
"E@	c #BB5F24",
"F@	c #C36326",
"G@	c #964810",
"H@	c #AC5514",
"I@	c #D4712C",
"J@	c #A25119",
"K@	c #D6C0BB",
"L@	c #F0E9E6",
"M@	c #B55C22",
"N@	c #9B4C15",
"O@	c #B75B17",
"P@	c #A35113",
"Q@	c #AF5815",
"R@	c #A15018",
"S@	c #C46425",
"T@	c #D8C4BE",
"U@	c #F9F6F6",
"V@	c #A45A2F",
"W@	c #B15920",
"X@	c #BD6217",
"Y@	c #D9800D",
"Z@	c #DE8812",
"`@	c #BF6615",
" #	c #A45112",
".#	c #CA6925",
"+#	c #D16F29",
"@#	c #A14F18",
"##	c #A2521C",
"$#	c #DAC6BF",
"%#	c #CC7213",
"&#	c #FB9D04",
"*#	c #FCBC44",
"=#	c #DA810F",
"-#	c #AE5715",
";#	c #AE5615",
">#	c #CC6A26",
",#	c #D06E28",
"'#	c #DCC9C2",
")#	c #FDFAFC",
"!#	c #BF998B",
"~#	c #A5531C",
"{#	c #B55B21",
"]#	c #A34F12",
"^#	c #BE6317",
"/#	c #E1860D",
"(#	c #E79012",
"_#	c #C36A13",
":#	c #BB5E19",
"<#	c #A24F12",
"[#	c #CD6B27",
"}#	c #CF6D28",
"|#	c #B25915",
"1#	c #9F4E17",
"2#	c #DDCCC6",
"3#	c #CDB1A7",
"4#	c #C26327",
"5#	c #BD6024",
"6#	c #CE6C28",
"7#	c #CD6C27",
"8#	c #B35A16",
"9#	c #A1511B",
"0#	c #E0D0CA",
"a#	c #BE6125",
"b#	c #CF6E28",
"c#	c #E2D4CF",
"d#	c #9F501A",
"e#	c #B95E23",
"f#	c #994A13",
"g#	c #BC5F19",
"h#	c #BE611B",
"i#	c #C1631E",
"j#	c #C4651F",
"k#	c #D7732F",
"l#	c #CB6A25",
"m#	c #C36325",
"n#	c #E4D8D4",
"o#	c #F0E9E7",
"p#	c #A04F19",
"q#	c #C56427",
"r#	c #B85F21",
"s#	c #D3712C",
"t#	c #D2702B",
"u#	c #D16F2A",
"v#	c #D06D29",
"w#	c #BF601B",
"x#	c #C16326",
"y#	c #E7DCD8",
"z#	c #F8F5F3",
"A#	c #A45C35",
"B#	c #AE5820",
"C#	c #AB561C",
"D#	c #AA5414",
"E#	c #B65C17",
"F#	c #9C4C14",
"G#	c #E9DEDB",
"H#	c #B07861",
"I#	c #B75B16",
"J#	c #9B4C14",
"K#	c #FBFBFA",
"L#	c #BF988A",
"M#	c #BB5F23",
"N#	c #9B4B10",
"O#	c #AB5515",
"P#	c #A95414",
"Q#	c #C76926",
"R#	c #9B4B14",
"S#	c #C16325",
"T#	c #A04F18",
"U#	c #ECE3DF",
"V#	c #FCFBFB",
"W#	c #CCB1A7",
"X#	c #C16225",
"Y#	c #95480F",
"Z#	c #CF6E29",
"`#	c #B85D17",
" $	c #9F4F17",
".$	c #EEE6E2",
"+$	c #D9C5BF",
"@$	c #964911",
"#$	c #CE6D28",
"$$	c #9A4A14",
"%$	c #C06225",
"&$	c #9F4E15",
"*$	c #F1E9E7",
"=$	c #E5D8D4",
"-$	c #9E4D12",
";$	c #BE601B",
">$	c #F3EDEC",
",$	c #B15A21",
"'$	c #A9541B",
")$	c #A04E11",
"!$	c #CA6926",
"~$	c #984A12",
"{$	c #F5F0EF",
"]$	c #A35B35",
"^$	c #A35112",
"/$	c #A85312",
"($	c #BF6125",
"_$	c #F7F2F1",
":$	c #AE755E",
"<$	c #BA5E22",
"[$	c #CA6A23",
"}$	c #C2631E",
"|$	c #984A11",
"1$	c #A25423",
"2$	c #F7F3F2",
"3$	c #FBFAFB",
"4$	c #BE9789",
"5$	c #95470F",
"6$	c #A14E11",
"7$	c #CE6C27",
"8$	c #A2582D",
"9$	c #F8F4F3",
"0$	c #B95C18",
"a$	c #A04E13",
"b$	c #D16E2A",
"c$	c #D26F2B",
"d$	c #D3702C",
"e$	c #BC5E19",
"f$	c #A45D36",
"g$	c #D8C5BE",
"h$	c #A0511C",
"i$	c #C46520",
"j$	c #BF611C",
"k$	c #BD601A",
"l$	c #A66240",
"m$	c #E4D7D2",
"n$	c #A7531B",
"o$	c #984911",
"p$	c #A86749",
"q$	c #F0E8E5",
"r$	c #B0581E",
"s$	c #AA6D52",
"t$	c #F9F5F4",
"u$	c #A9551F",
"v$	c #B75D21",
"w$	c #9C4D12",
"x$	c #AC735B",
"y$	c #FCF9FA",
"z$	c #B0765D",
"A$	c #BF6126",
"B$	c #93460E",
"C$	c #AB5415",
"D$	c #AA5515",
"E$	c #A95514",
"F$	c #AA5415",
"G$	c #AB5516",
"H$	c #AC5516",
"I$	c #AD5516",
"J$	c #AD5616",
"K$	c #AE5617",
"L$	c #9E4D14",
"M$	c #B0785E",
"N$	c #DCCBC5",
"O$	c #D2BAB4",
"P$	c #DFBDB3",
"Q$	c #E0BEB4",
"R$	c #DCBCB4",
"S$	c #DCBDB3",
"T$	c #DDBCB4",
"U$	c #DDBCB3",
"V$	c #DDBDB4",
"W$	c #DDBDB3",
"X$	c #DEBDB3",
"Y$	c #DEBDB4",
"Z$	c #DFBDB4",
"`$	c #E0BDB4",
" %	c #E1BEB4",
".%	c #E1BEB5",
"+%	c #D8C4BC",
"@%	c #FCF7F0",
"#%	c #FBF3E6",
"$%	c #FCEFDC",
"%%	c #FCECD2",
"&%	c #FCEACB",
"*%	c #FCE8C3",
"=%	c #FDE7BF",
"-%	c #FDE5BD",
";%	c #FCE5BB",
">%	c #FCE4BB",
",%	c #FCE5BC",
"'%	c #FDE6BC",
")%	c #FDE6BE",
"!%	c #FCE8C1",
"~%	c #FCE9C6",
"{%	c #FCEACC",
"]%	c #FCECD0",
"^%	c #FCEED8",
"/%	c #FCF1E1",
"(%	c #FCF4E9",
"_%	c #FCF8F2",
":%	c #FCFAF8",
"<%	c #FBF4E9",
"[%	c #FCE9C7",
"}%	c #FCDFA5",
"|%	c #FDD782",
"1%	c #FCCB51",
"2%	c #FDC23C",
"3%	c #FDBE36",
"4%	c #FEB832",
"5%	c #FEB42F",
"6%	c #FEB12C",
"7%	c #FEAF2A",
"8%	c #FEAF28",
"9%	c #FEAD27",
"0%	c #FEAE28",
"a%	c #FEB32E",
"b%	c #FDB731",
"c%	c #FDBB34",
"d%	c #FDC13A",
"e%	c #FDC943",
"f%	c #FDD15D",
"g%	c #FDDA8D",
"h%	c #FCE2B1",
"i%	c #FBEFDA",
"j%	c #FBEBCF",
"k%	c #FFCE46",
"l%	c #FECB41",
"m%	c #FCB02A",
"n%	c #FE9E11",
"o%	c #FF9700",
"p%	c #FE9802",
"q%	c #FDAA24",
"r%	c #FFCD44",
"s%	c #FFCE45",
"t%	c #FDD678",
"u%	c #FBF2E1",
"v%	c #FAE0B4",
"w%	c #FDCE44",
"x%	c #FECE45",
"y%	c #FECC43",
"z%	c #FDBB35",
"A%	c #FEB32D",
"B%	c #FEAC28",
"C%	c #FEAB26",
"D%	c #FEA924",
"E%	c #FEA923",
"F%	c #FFA922",
"G%	c #FFA821",
"H%	c #FFA81F",
"I%	c #FFA820",
"J%	c #FFA822",
"K%	c #FEAA25",
"L%	c #FEAC26",
"M%	c #FEAE27",
"N%	c #FEB22C",
"O%	c #FEB732",
"P%	c #FEC33C",
"Q%	c #FDCD44",
"R%	c #F6C977",
"S%	c #FCFBF9",
"T%	c #F2DECF",
"U%	c #F0C081",
"V%	c #F2B746",
"W%	c #F7BF3C",
"X%	c #FBC841",
"Y%	c #FDCC44",
"Z%	c #FECD44",
"`%	c #FECE44",
" &	c #FECD45",
".&	c #FCCD43",
"+&	c #FBC943",
"@&	c #F8C23E",
"#&	c #F4B93C",
"$&	c #F1BA62",
"%&	c #F0C79C",
"&&	c #F5E4DA",
"*&	c #FBF8F7",
"=&	c #F7EEE9",
"-&	c #F4E3DB",
";&	c #F1DACE",
">&	c #F0D5C5",
",&	c #F0D2BD",
"'&	c #F1D1B8",
")&	c #F1CFAF",
"!&	c #F2CDAA",
"~&	c #F2CDA8",
"{&	c #F2CEA7",
"]&	c #F2CDA4",
"^&	c #F2CCA1",
"/&	c #F3CB9F",
"(&	c #F2CB9C",
"_&	c #F3CB9B",
":&	c #F3CB9C",
"<&	c #F3CB9D",
"[&	c #F3CCA2",
"}&	c #F3CDA6",
"|&	c #F2CDA7",
"1&	c #F1CDA9",
"2&	c #F2CEAD",
"3&	c #F1D0B4",
"4&	c #F0D2BC",
"5&	c #F0D4C2",
"6&	c #F1D9CC",
"7&	c #F4E0D6",
"8&	c #F7EBE5",
"9&	c #FAF5F3",
"0&	c #FCF9FB",
". . . . . . . . . . . . . . . . . . . . . . . . . . . . . . . . . . . . . . . . . . . . . . . . . . . . . . . . . . . . ",
". . . . . . . . . . . . . . . . . . . . . . . . . . . . . . . . . . . . . . . . . . . . . . . . . . . . . . . . . . . . ",
". . . . . . . . . . . . . . . . . . . . . . . . . . . . . . . . . . . . . . . . . . . . . . . . . . . . . . . . . . . . ",
". . . . . . . . . . . . . . . . . . . . . . . . . . . . . . . . . . . . . . . . . . . . + . . . . . . . . . . . . . . . ",
". . . . . . . . . @ . . . . . . . . . . . . . . @ . . . . . . . + . . . . # $ % & * = - ; > , ' ) ! ~ { . . . . . . . . ",
". . . . . ] ^ / ( _ : < [ } | 1 2 3 4 5 6 7 8 9 0 a b c d e f g h i j k l m n o p q q r r q q q q q s t . . . . . . . . ",
". . . . . u v w w x q q q q q q q q q q y z A B C D E F G H I J K L M N O P Q R S T U V W X Y Z `  ...+.. . . . . . . . ",
". . . . . @.#.M $.%.&.U V *.=.-.U T T T T %.;.>.,.'.).!.~.{.].^./.(._.:.<.[.}.|.1.2.3.3.4.5.6.7.8.9.0.a.. . . . . . . . ",
". . . . . ^ b.S c.d.e.f.g.h.i.j.j.k.l.l.m.n.o.p.q.r.s.t.u.v.w.x.y.z.A.B.C.D.E.F.G.G.G.H.I.J.h.K.8. .L.M.. . . . . . . . ",
". . . . . . N.O.P.Q.G.J.I.I.I.I.I.J.I.I.I.I.I.I.I.I.I.I.I.I.I.I.I.I.I.I.I.I.I.I.I.I.I.I.I.J.R.K.8.I S.T.. . . . . . . . ",
". . . . . . U.V.W.X.Y.I.I.I.I.I.I.I.I.I.I.I.I.I.I.I.I.I.I.I.I.I.I.I.I.I.I.I.I.I.I.I.I.I.I.J.Z.`.8. +.+++. . . . . . . . ",
". . . . . . @+#+8.$+v.I.I.I.I.I.I.I.I.I.I.I.I.I.I.I.I.%+&+v.v.*+z.%+I.I.I.I.I.I.I.I.I.I.I.J.k.`.8.=+-+;+. . . . . . . . ",
". . . . . . >+A ,+).'+I.I.I.I.I.I.I.I.I.I.I.I.I.)+!+v.~+C.F.{+E.B.*+]+^+Y.I.I.I.I.I.I.I.I.I./+(+8. +_+. . . . . . . . . ",
". . . . . . :+<+` U [+J.I.I.I.I.I.I.I.I.I.I.)+*+D.J.I.I.I.I.I.I.I.I.I.I.w.'+F.I.I.I.I.I.I.I.}+|+W.1+2+. . . . . . . . . ",
". . . . . . 3+r 4+5+6+I.I.I.I.I.I.I.I.I.I.7+8+I.I.I.I.I.I.I.I.I.I.I.I.I.I.{+l.C.I.I.I.I.I.I.9+0+W.a+b+. . . . . . . . . ",
". . . . . . c+d+Q 8.e+%+I.I.I.I.I.I.I.I.f+D.I.I.I.I.I.I.I.I.I.I.I.I.I.I.I.I.{+g+J.I.I.I.I.I.h+i+8.j+k+l+. . . . . . . . ",
". . . . . . l+m+n+o+p+C.I.I.I.I.I.I.I.J.q+G.I.I.I.I.I.I.I.I.I.I.I.I.I.I.I.I.r+s+I.I.I.I.I.I.t+/.8.u+v+@ . . . . . . . . ",
". . . . . . l+w+x+y+:.w.I.I.I.I.I.I.I.I.u.)+I.I.I.I.I.I.I.I.I.I.I.I.I.I.I.I.z+A+B+I.I.I.I.I.C+(.8.u+D+. . . . . . . . . ",
". . . . . . @ E+F+8.!.G+I.I.I.I.I.I.I.I.H+I+I.I.I.I.I.I.I.I.I.I.I.I.I.I.I.I.J+K+I.I.I.I.I.I.n.L+W.u+M+. . . . . . . . . ",
". . . . . . . N+O+P+&.k.I.I.I.I.I.I.I.I.Q+R+S+T+U+V+W+X+X+X+J+Y+Z+`+ @.@.@+@@@#@I.I.I.I.I.I.o.$@W.%@&@. . . . . . . . . ",
". . . . . . . *@=@-@;@>@I.I.I.I.I.I.I.I.I.,@'@)@!@~@{@I.I.Q+I.I.I.I.I.I.I.I.I.I.I.I.I.I.I.I.'+]@8.#+^@/@. . . . . . . . ",
". . . . . . . (@r _@8.:@I.I.I.I.I.I.I.I.I.I.I.I.I.I.I.I.I.I.I.I.I.I.I.I.I.I.I.I.I.I.I.I.I.I.r.<@8.#+[@. . . . . . . . . ",
". . . . . . . }@|@O 8.1@D.I.I.I.I.I.I.I.I.I.I.I.I.I.I.I.I.I.I.I.I.I.J.I.I.Q+J.I.I.I.I.I.I.I.I+2@W.D 3@@ . . . . . . . . ",
". . . . . . . @ m+I o+4@*+I.I.I.I.I.I.I.I.E.5@n.6@h+9+l.7@7@7@l.8@R+9@9@9@9+0@a@I.I.I.I.I.I.^+b@c@d@e@@ . . . . . . . . ",
". . . . . . . l+f@E 8.K.'+I.I.I.I.I.I.I.I.g@p.E.%+g@Q+Q+I.I.I.I.I.I.I.I.I.I.h@i@I.I.I.I.I.I.]+b@c@d@j@. . . . . . . . . ",
". . . . . . . . k@l@c@;.m@n@I.I.I.I.I.I.I.o@p.I.I.I.I.I.I.I.I.I.I.I.I.I.I.I.p@q@I.I.I.I.I.I.r@[.c@s@t@. . . . . . . . . ",
". . . . . . . . u@q v@w@x@J.I.I.I.I.I.I.I.I.I+D.I.I.I.I.I.I.I.I.I.I.I.I.I.I.y@z@I.I.I.I.I.I.A@B@y+F+C@@ . . . . . . . . ",
". . . . . . . . D@q E@F@G@Q+I.I.I.I.I.I.I.I.Y.H@I.I.I.I.I.I.I.I.I.I.I.I.I.I..@I@I.I.I.I.I.I.v.J@W.F+K@. . . . . . . . . ",
". . . . . . . . L@w M@8.N@O@I.I.I.I.I.I.I.I.I.P@I.I.I.I.I.I.I.I.I.I.I.I.I.I.J+A+I.I.I.I.I.I.Q@R@S@F+T@. . . . . . . . . ",
". . . . . . . . U@V@W@W.[.x.I.X@Y@Z@`@I.I.I.I. #F.I.I.I.I.I.I.I.I.I.I.I.I.I..#+#I.I.I.I.I.I.w.@#W.##$#. . . . . . . . . ",
". . . . . . . . l+m+1+W.^.r.I.%#&#*#=#I.I.I.I.-#;#J.I.I.I.I.I.I.I.I.I.I.I.I.>#,#I.I.I.I.I.I.x.@#y+l@'#)#. . . . . . . . ",
". . . . . . . . . !#~#8.{#]#J.^#/#(#_#:#I.I.I.%+<#I.I.I.I.I.I.I.I.I.I.I.I.I.[#}#I.I.I.I.I.I.|#1#y+##2#. . . . . . . . . ",
". . . . . . . . . 3#y 4#5#x@J.I.I.Q+I.I.I.I.I.I.h.Q+I.I.I.I.I.I.I.I.I.I.I.I.6#7#I.I.I.I.I.I.8#1#F@9#0#. . . . . . . . . ",
". . . . . . . . . $#r a#F@G@J.I.I.I.I.I.I.I.I.I.n.~+I.I.I.I.I.I.I.I.I.I.I.I.b#K+I.I.I.I.I.I.A.2.F@9#c#. . . . . . . . . ",
". . . . . . . . . *@d#e#8.f#E.I.I.I.I.I.I.I.I.I.z.}+I.I.I.I.I.I.g#h#i#j#y@.@k#l#I.I.I.I.I.I.)+2.m#q n#. . . . . . . . . ",
". . . . . . . . . o#p#P q#R@|#I.I.I.I.I.I.I.I.I.Q+r#s#t#t#A+A+A+t#u#v#7#l#J+`+w#I.I.I.I.I.I.C.3.x#<+y#. . . . . . . . . ",
". . . . . . . . . z#A#B#W.C#D#I.I.I.I.I.I.I.I.I.I.I.I.I.I.I.I.I.I.I.I.I.I.I.I.I.I.I.I.I.I.I.E#F#x#<+G#@ . . . . . . . . ",
". . . . . . . . . l+H#u+8.'.l.I.I.I.I.I.I.I.I.I.I.I.I.I.I.I.I.I.Q+g@%+%+E.D.I#E.I.I.I.I.I.I.O@J#x#p#> . . . . . . . . . ",
". . . . . . . . . K#L#A F@M#N#I.I.I.I.I.I.I.I.I.I.O#h+G+P#P#P#D#D#I+s.H@]+u.-#Q#:#I.I.I.I.I.D.R#S#T#U#. . . . . . . . . ",
". . . . . . . . . V#W#<+X#c.Y#Q+I.I.I.I.I.I.I.I.I.w.D#:#I.I.I.I.I.I.I.:#I.I.I.Z#I.I.I.I.I.I.`#R#S# $.$. . . . . . . . . ",
". . . . . . . . . . +$r X W.@$E.I.I.I.I.I.I.I.I.I.D.<#I.I.I.I.I.I.I.I.I.I.I.I.#$I.I.I.I.I.I.%+$$%$&$*$/@. . . . . . . . ",
". . . . . . . . . . =$=@R W.T#|#I.I.I.I.I.I.I.I.I.H.-$J.I.I.I.I.I.I.I.I.I.I.;$7#I.I.I.I.I.I.%+f#%$1.>$/@. . . . . . . . ",
". . . . . . . . . . o#q ,$8.'$I+I.I.I.I.I.I.I.I.I.I.)$E.I.I.I.I.I.I.I.I.I.I.i#!$I.I.I.I.I.I.G.~$%$ ${$. . . . . . . . . ",
". . . . . . . . . . z#]$ +W.).^$I.I.I.I.I.I.I.I.I.I./$y.I.I.I.I.I.I.I.I.I.I.@@@@I.I.I.I.I.I.g@~$($y _$. . . . . . . . . ",
". . . . . . . . . . @ :$~#8.<$f.J.I.I.I.I.I.I.I.I.I.w.'+J.I.I.I.I.I.I.I.I.I.[$}$I.I.I.I.I.I.G.|$($1$2$. . . . . . . . . ",
". . . . . . . . . . 3$4$9#,+X#5$I.I.I.I.I.I.I.I.I.I.E.6$I.I.I.I.I.I.I.I.I.I.7$;$I.I.I.I.I.I.I.~$($8$9$. . . . . . . . . ",
". . . . . . . . . . . W#q ($8.d.0$I.I.I.I.I.I.I.I.I.I.a$V+.@l#[##$b$c$d$I@I@i@e$I.I.I.I.I.I.G.~$w@f$^ . . . . . . . . . ",
". . . . . . . . . . @ g$h$<$8.2.&+I.I.I.I.I.I.I.I.I.I.,@K+J+V+i$i#j$k$e$I.I.I.I.I.I.I.I.I.I.I.|$5#l$a.. . . . . . . . . ",
". . . . . . . . . . . m$h$P 8.n$s.I.I.I.I.I.I.I.I.I.I.I.I.I.I.I.I.I.I.I.I.I.I.I.I.I.I.I.I.I.I.o$X p$# . . . . . . . . . ",
". . . . . . . . . . . q$r n+8.r$ #I.I.I.I.I.I.I.I.I.I.I.I.I.I.I.I.I.I.I.I.I.I.I.I.I.I.I.I.I.I.|$X s$@ . . . . . . . . . ",
". . . . . . . . . . . t$8$u$q#v$w$J.I.I.I.I.I.I.I.I.I.I.I.I.I.I.I.I.I.I.I.I.I.I.I.Q+I.I.I.I.I.e+E@x$. . . . . . . . . . ",
". . . . . . . . . . . y$z$F+8.A$B$H@s.s.I+I+I+C$D$E$E$f+P#D#D#D#D#F$D$F$D$D$s.O#G$H$H$I$J$J$K$L$M#M$. . . . . . . . . . ",
". . . . . . . . . . . . N$O$P$Q$R$S$T$U$V$W$X$X$Y$Y$Z$Z$Z$Z$Q$`$`$Q$Q$ %.%.%Q$ %Q$ % % %Q$Q$ %Q$V$+%. . . . . . . . . . ",
". . . . . . . . . . . . . . . . . . . . . . . . . . . . . . . . . . . . . . . . . . . . . . . . . . . . . . . . . . . . ",
". . . . . . . . . . . . . . . . . . . @ @%#%$%%%&%*%=%-%;%>%,%,%;%'%)%!%~%{%]%^%/%(%_%. . . . . . . . . . . . . . . . . ",
". . . . . . . . . . . . . /@:%<%[%}%|%1%2%3%4%5%6%7%8%9%9%9%9%9%0%0%0%7%7%6%a%b%c%d%e%f%g%h%i%++. . . . . . . . . . . . ",
". . . . . . . . . . . . ;+j%|%k%l%m%n%o%o%o%o%o%o%o%o%o%o%o%o%o%o%o%o%o%o%o%o%o%o%o%p%q%r%k%s%t%u%@ . . . . . . . . . . ",
". . . . . . . . . . . . v%w%x%s%y%z%A%7%B%C%D%E%F%G%H%H%H%H%H%H%H%H%I%J%E%D%K%L%M%N%O%P%s%s%s%Q%R%S%. . . . . . . . . . ",
". . . . . . . . . . . . T%U%V%W%X%Y%Z%`%`%w%Z%Z%`%x%x%x%x%`%`%`%x%x%x%x%`%`%`%`% &Q%.&+&@&#&$&%&&&. . . . . . . . . . . ",
". . . . . . . . . . . . . l+*&=&-&;&>&,&'&)&!&~&{&]&^&/&(&_&:&_&<&/&[&}&|&1&2&3&4&5&6&7&8&9&l+0&. . . . . . . . . . . . ",
". . . . . . . . . . . . . . . . . . . . . . . + . . . . . + + . . . . . . . . . . . . . . . . . . . . . . . . . . . . . ",
". . . . . . . . . . . . . . . . . . . . . . . . . . . . . . . . . . . . . . . . . . . . . . . . . . . . . . . . . . . . "};
